<svg width="50" height="50" viewBox="0 0 50 50" fill="none" xmlns="http://www.w3.org/2000/svg">
<path d="M49.9998 25C49.9998 31.6304 47.3659 37.9893 42.6775 42.6777C37.9891 47.3661 31.6303 50 24.9998 50C18.3694 50 12.0106 47.3661 7.32218 42.6777C2.63377 37.9893 -0.000152588 31.6304 -0.000152588 25C-0.000152588 18.3696 2.63377 12.0107 7.32218 7.32233C12.0106 2.63392 18.3694 0 24.9998 0C31.6303 0 37.9891 2.63392 42.6775 7.32233C47.3659 12.0107 49.9998 18.3696 49.9998 25ZM25.8967 18.4563C23.4655 19.4688 18.603 21.5625 11.3155 24.7375C10.1342 25.2062 9.51235 25.6687 9.4561 26.1187C9.36235 26.8781 10.3155 27.1781 11.6123 27.5875L12.1592 27.7594C13.4342 28.175 15.153 28.6594 16.0436 28.6781C16.8561 28.6969 17.7592 28.3656 18.7561 27.6781C25.5655 23.0813 29.0811 20.7594 29.2998 20.7094C29.4561 20.6719 29.6748 20.6281 29.8186 20.7594C29.9655 20.8875 29.9498 21.1344 29.9342 21.2C29.8405 21.6031 26.0998 25.0781 24.1655 26.8781C23.5623 27.4406 23.1342 27.8375 23.0467 27.9281C22.854 28.125 22.6582 28.3188 22.4592 28.5094C21.2717 29.6531 20.3842 30.5094 22.5061 31.9094C23.528 32.5844 24.3467 33.1375 25.1623 33.6937C26.0498 34.3 26.9373 34.9031 28.0873 35.6594C28.378 35.8469 28.6592 36.05 28.9311 36.2437C29.9655 36.9812 30.8998 37.6437 32.0467 37.5375C32.7155 37.475 33.4061 36.85 33.7561 34.975C34.5842 30.5469 36.2123 20.9562 36.5873 17.0031C36.6102 16.6745 36.5966 16.3444 36.5467 16.0187C36.5173 15.756 36.3901 15.5139 36.1905 15.3406C35.9061 15.1443 35.5672 15.0427 35.2217 15.05C34.2842 15.0656 32.8373 15.5688 25.8967 18.4563Z" fill="white"/>
</svg>
