<svg width="50" height="50" viewBox="0 0 50 50" xmlns="http://www.w3.org/2000/svg" >
<path d="M24.9998 0C11.1926 0 -0.000152588 11.1927 -0.000152588 25C-0.000152588 38.8073 11.1926 50 24.9998 50C38.8071 50 49.9998 38.8073 49.9998 25C49.9998 11.1927 38.8071 0 24.9998 0ZM34.6144 28.2057C34.6144 28.2057 36.8254 30.388 37.3696 31.401C37.3853 31.4219 37.3931 31.4427 37.3983 31.4531C37.6196 31.8255 37.6717 32.1146 37.5623 32.3307C37.3801 32.6901 36.7551 32.8672 36.5415 32.8828H32.6353C32.3644 32.8828 31.7967 32.8125 31.1092 32.3385C30.5806 31.9687 30.0597 31.362 29.5519 30.7708C28.7941 29.8906 28.1379 29.1302 27.4764 29.1302C27.3924 29.1301 27.3089 29.1432 27.229 29.1693C26.729 29.3307 26.0884 30.0443 26.0884 31.9453C26.0884 32.5391 25.6196 32.8802 25.2889 32.8802H23.4998C22.8905 32.8802 19.716 32.6667 16.9035 29.7005C13.4608 26.0677 10.3618 18.7812 10.3358 18.7135C10.1405 18.2422 10.5441 17.9896 10.9842 17.9896H14.9295C15.4556 17.9896 15.6274 18.3099 15.7472 18.5937C15.8879 18.9245 16.4035 20.2396 17.2498 21.7188C18.6222 24.1302 19.4634 25.1094 20.1379 25.1094C20.2643 25.1079 20.3886 25.0757 20.4998 25.0156C21.3801 24.526 21.216 21.388 21.1769 20.737C21.1769 20.6146 21.1743 19.3333 20.7238 18.7187C20.4009 18.2734 19.8514 18.1042 19.5181 18.0417C19.653 17.8555 19.8307 17.7045 20.0363 17.6016C20.6405 17.2995 21.729 17.2552 22.8097 17.2552H23.4113C24.5832 17.2708 24.8853 17.3464 25.3097 17.4531C26.1691 17.6589 26.1873 18.2135 26.1118 20.112C26.0884 20.651 26.065 21.2604 26.065 21.9792C26.065 22.1354 26.0571 22.3021 26.0571 22.4792C26.0311 23.4453 25.9998 24.5417 26.6821 24.9922C26.7711 25.048 26.874 25.0778 26.979 25.0781C27.216 25.0781 27.9295 25.0781 29.8618 21.763C30.4578 20.696 30.9756 19.5872 31.4113 18.4453C31.4504 18.3776 31.565 18.1693 31.7004 18.0885C31.8003 18.0376 31.9111 18.0117 32.0233 18.013H36.6613C37.1665 18.013 37.5129 18.0885 37.578 18.2839C37.6926 18.5937 37.5571 19.5391 35.4399 22.4062L34.4946 23.6536C32.5754 26.1693 32.5754 26.2969 34.6144 28.2057Z"/>
</svg>
